<?xml version="1.0" standalone="no"?> <!-- Generator: Gravit.io --><svg xmlns="http://www.w3.org/2000/svg" xmlns:xlink="http://www.w3.org/1999/xlink" style="isolation:isolate" viewBox="0 0 385 386.645" width="385" height="386.645"><defs><clipPath id="_clipPath_TGWZlFQsMwWT1rFzQOxUGtyeKpDT0Bgq"><rect width="385" height="386.645"/></clipPath></defs><g clip-path="url(#_clipPath_TGWZlFQsMwWT1rFzQOxUGtyeKpDT0Bgq)"><g><rect x="0" y="1.645" width="385" height="385" transform="matrix(1,0,0,1,0,0)" fill="none"/><rect x="0" y="0" width="385" height="16.453" transform="matrix(1,0,0,1,0,0)" fill="rgb(255,255,255)"/><rect x="-184.273" y="185.919" width="385" height="16.453" transform="matrix(0,-1,1,0,-185.919,202.372)" fill="rgb(255,255,255)"/><rect x="184.274" y="185.919" width="385" height="16.453" transform="matrix(0,-1,1,0,182.628,570.919)" fill="rgb(255,255,255)"/><rect x="0" y="185.919" width="385" height="16.453" transform="matrix(0,-1,1,0,-1.646,386.645)" fill="rgb(255,255,255)"/><rect x="111.294" y="149.139" width="339.345" height="16.453" transform="matrix(0.521,-0.854,0.854,0.521,0.316,315.294)" fill="rgb(255,255,255)"/><rect x="-65.706" y="149.139" width="339.345" height="16.453" transform="matrix(0.521,0.854,-0.854,0.521,184.178,-13.336)" fill="rgb(255,255,255)"/></g></g></svg>